Coordinates
version=1
nRows=26
nColumns=24
inDegrees=yes

Units are S.I. units (second, meters, Newtons, ...)
Angles are in degrees.

endheader
time	pelvis_tilt	pelvis_list	pelvis_rotation	pelvis_tx	pelvis_ty	pelvis_tz	hip_flexion_r	hip_adduction_r	hip_rotation_r	knee_angle_r	ankle_angle_r	subtalar_angle_r	mtp_angle_r	hip_flexion_l	hip_adduction_l	hip_rotation_l	knee_angle_l	ankle_angle_l	subtalar_angle_l	mtp_angle_l	lumbar_extension	lumbar_bending	lumbar_rotation
      4.09500000	     10.70686391	      9.49226367	     11.74738370	     -0.06514255	      0.73165907	     -0.25591956	     16.78571818	    -11.19084175	      4.12597065	    -15.57093862	     18.51575648	     11.12807426	      0.00000000	    -21.69895572	      7.19492807	      9.57318497	    -30.18804135	     32.35081591	     10.45026048	      0.00000000	    -34.31597523	     -1.07474852	    -16.36831790
      4.10000000	     10.80873350	      9.07304627	     11.98938077	     -0.05681243	      0.73142583	     -0.25547243	     16.73376260	    -10.67932886	      3.33876973	    -16.72730104	     17.91385885	     10.19551520	      0.00000000	    -21.22437574	      6.62591781	      9.44256479	    -32.40087990	     31.27869932	     10.21763738	      0.00000000	    -34.16347500	     -0.54483656	    -16.16613958
      4.10500000	     10.98727888	      8.60577305	     12.07565887	     -0.04845283	      0.73130118	     -0.25493903	     16.61601057	    -10.07412462	      2.66402886	    -17.87700304	     17.27424100	      9.40907479	      0.00000000	    -20.76226126	      6.05541680	      9.12084550	    -34.65777813	     29.96945104	      9.85990814	      0.00000000	    -34.08670247	     -0.01466227	    -15.76561173
      4.11000000	     11.13719774	      8.12639549	     12.18095078	     -0.04013613	      0.73121404	     -0.25432116	     16.51885388	     -9.43444957	      2.09407691	    -19.06085933	     16.64049127	      8.35017342	      0.00000000	    -20.18190909	      5.45935442	      8.75398030	    -36.99801462	     28.45217543	      9.49355706	      0.00000000	    -33.98999918	      0.51544177	    -15.45042053
      4.11500000	     11.31507924	      7.62859760	     12.22579643	     -0.03184646	      0.73122789	     -0.25367250	     16.37526668	     -8.76671755	      1.55083537	    -20.20788734	     16.09006430	      7.57376389	      0.00000000	    -19.56069310	      4.87287567	      8.34329763	    -39.37941153	     26.66245349	      8.97589892	      0.00000000	    -33.93503283	      1.04066141	    -15.06296753
      4.12000000	     11.48687443	      7.10681963	     12.26710237	     -0.02361457	      0.73130881	     -0.25301826	     16.21465990	     -8.07049381	      1.04807325	    -21.31877599	     15.61998477	      6.86393453	      0.00000000	    -18.85554391	      4.27251484	      7.92919486	    -41.80345666	     24.66100311	      8.33136736	      0.00000000	    -33.88318431	      1.59138059	    -14.68922858
      4.12500000	     11.63850211	      6.56407566	     12.30491931	     -0.01545239	      0.73144425	     -0.25234921	     16.05462764	     -7.34131378	      0.61164015	    -22.39454324	     15.24688190	      6.17385855	      0.00000000	    -18.05903422	      3.66812990	      7.53028294	    -44.23768552	     22.49925734	      7.56392936	      0.00000000	    -33.82346551	      2.15581895	    -14.33404354
      4.13000000	     11.74084930	      6.03250405	     12.35903556	     -0.00740108	      0.73163255	     -0.25164089	     15.88248123	     -6.60989313	      0.30508170	    -23.34703314	     15.00490622	      5.47497749	      0.00000000	    -17.12727174	      3.09056403	      7.18174437	    -46.69953723	     20.17291661	      6.73145773	      0.00000000	    -33.74113951	      2.69026047	    -13.99827067
      4.13500000	     11.88124116	      5.45916905	     12.38954861	      0.00059128	      0.73192600	     -0.25096506	     15.64104246	     -5.83779941	     -0.05724947	    -24.22270464	     14.89649118	      5.06253896	      0.00000000	    -16.18159238	      2.47929815	      6.81515077	    -49.11592712	     17.81803542	      5.76642930	      0.00000000	    -33.70877775	      3.27261025	    -13.62947526
      4.14000000	     12.01972314	      4.87436235	     12.42867712	      0.00849221	      0.73230367	     -0.25029941	     15.34985374	     -5.04645592	     -0.38179894	    -24.99106151	     14.92967942	      4.75657767	      0.00000000	    -15.17810855	      1.86776679	      6.50094528	    -51.48627264	     15.46731171	      4.76305052	      0.00000000	    -33.69450208	      3.86641176	    -13.26815505
      4.14500000	     12.12473955	      4.28956037	     12.49209470	      0.01628601	      0.73274590	     -0.24966140	     15.03271725	     -4.24870620	     -0.63133356	    -25.63588009	     15.08587854	      4.48450315	      0.00000000	    -14.08501072	      1.28194871	      6.27996604	    -53.80286433	     13.17184564	      3.75018077	      0.00000000	    -33.66557570	      4.46289949	    -12.94228639
      4.15000000	     12.27673043	      3.66086548	     12.53432610	      0.02402977	      0.73331394	     -0.24905355	     14.60696138	     -3.38934908	     -0.85213526	    -26.13772864	     15.36835630	      4.41552601	      0.00000000	    -13.00857642	      0.65746363	      6.06861780	    -56.02208283	     11.08417327	      2.82536980	      0.00000000	    -33.69428237	      5.10827963	    -12.56573658
      4.15500000	     12.38834943	      3.06667973	     12.61640399	      0.03164580	      0.73393746	     -0.24848034	     14.16428717	     -2.56552184	     -1.04416354	    -26.52922447	     15.74249403	      4.28305337	      0.00000000	    -11.84734236	      0.09938951	      5.97618301	    -58.16593406	      9.18168414	      1.93538669	      0.00000000	    -33.70987263	      5.72092508	    -12.24420399
      4.16000000	     12.47850879	      2.48426766	     12.70965110	      0.03917517	      0.73463006	     -0.24795975	     13.68407618	     -1.75245967	     -1.19992322	    -26.79653113	     16.19871510	      4.17231754	      0.00000000	    -10.63386547	     -0.41430696	      5.95799106	    -60.21447212	      7.55545854	      1.17995748	      0.00000000	    -33.72072579	      6.32145566	    -11.93421452
      4.16500000	     12.55689196	      1.91521453	     12.81398194	      0.04662139	      0.73539916	     -0.24748064	     13.15488653	     -0.94860698	     -1.32204925	    -26.93686321	     16.71355849	      4.08720909	      0.00000000	     -9.38377644	     -0.88308677	      6.01187647	    -62.15753080	      6.24985491	      0.58751796	      0.00000000	    -33.73580066	      6.90758028	    -11.63183982
      4.17000000	     12.58222298	      1.37044445	     12.96520381	      0.05396922	      0.73620167	     -0.24707285	     12.62388155	     -0.18260089	     -1.45937181	    -26.96479632	     17.24635383	      3.90886703	      0.00000000	     -8.04205445	     -1.28860783	      6.17593455	    -64.01162346	      5.27300006	      0.22566414	      0.00000000	    -33.70768638	      7.47534452	    -11.35170600
      4.17500000	     12.67711266	      0.83688693	     13.04298271	      0.06130259	      0.73715257	     -0.24669108	     11.95324788	      0.60216414	     -1.47168918	    -26.84928577	     17.84020474	      3.92922409	      0.00000000	     -6.79499540	     -1.65835482	      6.29685990	    -65.70707718	      4.66499314	     -0.00393506	      0.00000000	    -33.76980386	      8.02371931	    -11.03335385
      4.18000000	     12.73534023	      0.32203891	     13.17492492	      0.06856163	      0.73814784	     -0.24637301	     11.25921180	      1.35476476	     -1.52520176	    -26.61009576	     18.40494845	      3.85766681	      0.00000000	     -5.48114806	     -1.97879018	      6.52191584	    -67.30027595	      4.38392004	      0.01232509	      0.00000000	    -33.80022093	      8.55835716	    -10.73011590
      4.18500000	     12.79905531	     -0.15060246	     13.28400777	      0.07577560	      0.73921232	     -0.24610056	     10.50919149	      2.06956872	     -1.52164661	    -26.27995524	     18.97384141	      3.79311482	      0.00000000	     -4.18007640	     -2.22629989	      6.75383369	    -68.75802837	      4.41367323	      0.24120106	      0.00000000	    -33.85251909	      9.04824825	    -10.42406371
      4.19000000	     12.86505114	     -0.58660990	     13.38236744	      0.08296071	      0.74034347	     -0.24584595	      9.70155753	      2.74987955	     -1.49263670	    -25.84641506	     19.52359432	      3.72649027	      0.00000000	     -2.88999866	     -2.41253944	      7.00191677	    -70.07249802	      4.71482069	      0.65959067	      0.00000000	    -33.91874902	      9.48527647	    -10.10235135
      4.19500000	     12.91549559	     -0.96722405	     13.48707918	      0.09013930	      0.74153595	     -0.24560854	      8.83845406	      3.37980139	     -1.40336280	    -25.28988975	     20.02371506	      3.54820030	      0.00000000	     -1.59853067	     -2.52242616	      7.27748863	    -71.23523821	      5.23598300	      1.30282173	      0.00000000	    -33.97290945	      9.85951446	     -9.81913250
      4.20000000	     12.99779285	     -1.32508805	     13.52149334	      0.09731906	      0.74278275	     -0.24541205	      7.91604534	      3.97229340	     -1.33353574	    -24.68676460	     20.52003452	      3.57212048	      0.00000000	     -0.37100810	     -2.59358142	      7.46965187	    -72.23921527	      5.93625495	      1.93826171	      0.00000000	    -34.07512727	     10.18929324	     -9.42310924
      4.20500000	     13.06961595	     -1.62855423	     13.56773624	      0.10449953	      0.74407192	     -0.24522692	      6.94150064	      4.50978200	     -1.22859954	    -23.97890291	     20.93843532	      3.50896581	      0.00000000	      0.84601869	     -2.59803784	      7.68847420	    -73.08682138	      6.77267630	      2.76837064	      0.00000000	    -34.16859246	     10.45880797	     -9.09332342
      4.21000000	     13.14927270	     -1.89368870	     13.57779127	      0.11167514	      0.74537231	     -0.24504710	      5.93183825	      5.00113548	     -1.10750937	    -23.23204377	     21.33211619	      3.48941170	      0.00000000	      2.02871132	     -2.56035555	      7.85587859	    -73.78344503	      7.69181727	      3.62607627	      0.00000000	    -34.28162857	     10.67201208	     -8.72362353
      4.21500000	     13.23154538	     -2.11497643	     13.55296974	      0.11884822	      0.74666371	     -0.24487124	      4.90156924	      5.43319002	     -0.99606924	    -22.47112309	     21.72756266	      3.53220080	      0.00000000	      3.17646755	     -2.47201915	      7.98290616	    -74.32992892	      8.67037100	      4.49493138	      0.00000000	    -34.41049121	     10.82067915	     -8.30287083
      4.22000000	     13.31108790	     -2.30024321	     13.51300731	      0.12606115	      0.74795823	     -0.24468815	      3.82826484	      5.82065306	     -0.87320501	    -21.63243773	     22.04559871	      3.59094139	      0.00000000	      4.29388314	     -2.36124895	      8.06752004	    -74.71829690	      9.66769177	      5.41468001	      0.00000000	    -34.52932459	     10.92066836	     -7.91342345
